:SAMPLES-PER-SECOND 30
:FULLY-SPECIFIED
:DEGREES
646
root  -16.2378 33.7872 -27.6862 13.6259 -61.7184 -7.66068
RightUpLeg  -10.826 -24.8557 1.4036
RightLeg  22.1862 1.24493 0.413194
RightFoot  -5.28079 -0.0263138 -0.0343046
RightToes  -32.9436 -0.164707 -0.271895
Spine  -0.848863 -1.46435 2.75624
Spine1  -1.8723 -3.16379 6.07723
HEad  -43.1231 4.52012 5.30376
LeftShoulder1  -1.94126e-019 -3.10601e-018 -2.51263e-017
LeftArm  -13.7704 35.2072 -71.2501
LeftForeArm  33.581 -30.8442 -4.91334
LeftHand  -0.457211 -2.17588 7.21573
RightShoulder  -4.96962e-017 0 -2.36833e-017
RightArm  -43.4591 -27.9071 66.5811
RightForeArm  61.4388 10.4394 1.53965
RightHand  -0.288307 -2.38142 -10.8286
LeftUpLeg  -14.9458 -1.45612 13.4611
LeftLeg  35.3199 17.7688 10.6436
LeftFoot  -6.70486 -0.15709 -2.51967
LeftToes  -1.71779 1.87998e-006 4.79886e-008
647
root  -16.8142 33.9663 -27.9522 13.4168 -64.018 -7.58844
RightUpLeg  -8.87451 -21.4558 1.71505
RightLeg  19.4002 0.0314864 0.00707024
RightFoot  -4.68393 -0.0173165 0.123376
RightToes  -31.0652 -0.151324 -0.259301
Spine  -0.537401 -0.489702 2.47047
Spine1  -1.15227 -0.975018 5.41218
HEad  -41.9728 4.50397 5.28965
LeftShoulder1  -1.94126e-019 -3.10601e-018 -2.51263e-017
LeftArm  -13.8418 33.3409 -69.901
LeftForeArm  30.7581 -35.9183 -6.28972
LeftHand  -0.419348 -3.04686 6.00765
RightShoulder  -4.96962e-017 0 -2.36833e-017
RightArm  -37.5063 -22.1533 66.5882
RightForeArm  56.1565 12.6665 1.42497
RightHand  -0.233279 -3.24761 -12.0735
LeftUpLeg  -16.5388 1.90243 11.6297
LeftLeg  38.0203 15.9026 10.5963
LeftFoot  -5.64323 -0.100661 -1.88058
LeftToes  -3.60604 1.87998e-006 4.79886e-008
648
root  -17.3368 34.1463 -28.1046 13.5229 -66.5132 -7.2543
RightUpLeg  -7.25969 -18.9535 1.73997
RightLeg  16.233 -0.0770409 -0.0175691
RightFoot  -3.76561 -0.0130734 0.153722
RightToes  -30.9452 -0.146415 -0.254682
Spine  -0.596294 0.292388 2.11254
Spine1  -1.19721 0.70006 4.75767
HEad  -40.9963 4.80513 5.05285
LeftShoulder1  -1.94126e-019 -3.10601e-018 -2.51263e-017
LeftArm  -16.6578 32.5867 -70.0575
LeftForeArm  29.1909 -39.7418 -7.46579
LeftHand  -0.447373 -2.09596 7.13425
RightShoulder  -4.96962e-017 0 -2.36833e-017
RightArm  -32.2597 -16.8032 66.6258
RightForeArm  52.6737 14.976 1.19843
RightHand  -0.21958 -3.49049 -12.7478
LeftUpLeg  -18.7073 4.9979 9.15823
LeftLeg  39.6094 14.7094 10.4192
LeftFoot  -3.00635 -0.0265067 -0.848525
LeftToes  -9.773 1.87998e-006 4.79886e-008
649
root  -17.8691 34.2811 -28.1817 13.7557 -68.578 -6.98993
RightUpLeg  -5.42605 -18.6259 1.54285
RightLeg  12.7905 1.54438 0.248101
RightFoot  -2.61328 -0.00660365 0.0759629
RightToes  -32.277 -0.144382 -0.252769
Spine  -0.741061 0.800928 1.88814
Spine1  -1.4472 1.70781 4.40365
HEad  -40.2577 5.42281 4.33814
LeftShoulder1  -1.94126e-019 -3.10601e-018 -2.51263e-017
LeftArm  -18.6358 32.4132 -70.9904
LeftForeArm  27.6678 -42.2491 -8.34908
LeftHand  -0.567658 -3.00719 8.08206
RightShoulder  -4.96962e-017 0 -2.36833e-017
RightArm  -28.2011 -12.1399 66.5906
RightForeArm  50.7475 19.5088 1.69355
RightHand  -0.232622 -3.35568 -12.6719
LeftUpLeg  -21.2355 7.009 6.64589
LeftLeg  40.4396 14.4261 10.5351
LeftFoot  -2.29489 -0.0149728 -0.585974
LeftToes  -11.9328 1.87998e-006 4.79886e-008
650
root  -18.4232 34.355 -28.1874 13.3363 -70.3593 -5.8956
RightUpLeg  -4.16271 -18.5473 1.02773
RightLeg  10.4347 2.9897 0.354802
RightFoot  -1.95314 -0.00481978 0.0383191
RightToes  -33.2941 -0.144525 -0.252904
Spine  -0.897425 1.27678 1.63129
Spine1  -1.74029 2.66133 3.90899
HEad  -39.7355 5.98601 3.61406
LeftShoulder1  -1.94126e-019 -3.10601e-018 -2.51263e-017
LeftArm  -20.8424 32.6091 -72.5589
LeftForeArm  26.7306 -43.466 -8.81704
LeftHand  -0.628741 -2.30612 9.68727
RightShoulder  -4.96962e-017 0 -2.36833e-017
RightArm  -24.5575 -8.37261 66.449
RightForeArm  49.047 25.2629 2.88829
RightHand  -0.231208 -3.25486 -11.9986
LeftUpLeg  -23.9039 8.19648 3.8838
LeftLeg  40.2342 15.3286 11.0824
LeftFoot  -2.44132 -0.0178559 -0.676424
LeftToes  -11.0847 1.87998e-006 4.79886e-008
651
root  -19.0069 34.3891 -28.142 13.0096 -72.2267 -4.71222
RightUpLeg  -3.45519 -17.2781 0.574971
RightLeg  8.89025 3.36951 0.308091
RightFoot  -1.76278 -0.00690507 0.0357422
RightToes  -33.1432 -0.146146 -0.254431
Spine  -1.08779 1.737 1.33218
Spine1  -2.1093 3.55313 3.349
HEad  -39.5403 6.61226 3.02467
LeftShoulder1  -1.94126e-019 -3.10601e-018 -2.51263e-017
LeftArm  -22.1098 33.0903 -74.1149
LeftForeArm  25.6459 -43.7053 -8.97059
LeftHand  -0.648249 -1.85624 10.5667
RightShoulder  -4.96962e-017 0 -2.36833e-017
RightArm  -21.2245 -4.9516 66.5065
RightForeArm  48.2512 30.2646 3.98764
RightHand  -0.250968 -2.95753 -11.5172
LeftUpLeg  -26.5423 9.45976 1.19415
LeftLeg  39.0537 16.8255 11.6063
LeftFoot  -1.74358 -0.00991037 -0.489714
LeftToes  -13.0099 1.87998e-006 4.79886e-008
652
root  -19.6546 34.3796 -28.0534 12.9398 -73.9989 -3.80362
RightUpLeg  -2.90824 -16.0448 0.171019
RightLeg  7.89311 3.66276 0.270697
RightFoot  -1.77143 -0.00940053 0.0254261
RightToes  -33.2209 -0.148544 -0.256695
Spine  -1.26124 2.07286 1.04162
Spine1  -2.45354 4.17568 2.80947
HEad  -39.6727 7.57085 2.63583
LeftShoulder1  -1.94126e-019 -3.10601e-018 -2.51263e-017
LeftArm  -23.0148 33.9781 -75.6159
LeftForeArm  25.3583 -42.5105 -8.5797
LeftHand  -0.654741 -2.26356 10.1313
RightShoulder  -4.96962e-017 0 -2.36833e-017
RightArm  -18.2176 -1.95945 66.8735
RightForeArm  48.5704 34.6715 4.99829
RightHand  -0.289961 -2.51577 -11.3882
LeftUpLeg  -29.0023 11.173 -1.21202
LeftLeg  36.733 17.7104 11.191
LeftFoot  -1.33145 -0.0059893 -0.353886
LeftToes  -13.7697 1.87998e-006 4.79886e-008
653
root  -20.3421 34.3217 -27.922 12.6822 -75.5201 -2.74466
RightUpLeg  -2.67742 -14.531 -0.255665
RightLeg  7.83276 3.42291 0.249428
RightFoot  -2.39742 -0.0113033 -0.000340536
RightToes  -32.0453 -0.15102 -0.259037
Spine  -1.37351 2.35288 0.72774
Spine1  -2.68156 4.6968 2.20645
HEad  -40.2383 8.52711 2.37654
LeftShoulder1  -1.94126e-019 -3.10601e-018 -2.51263e-017
LeftArm  -23.783 34.7828 -77.225
LeftForeArm  25.457 -40.2165 -7.83335
LeftHand  -0.559734 -2.105 8.86602
RightShoulder  -4.96962e-017 0 -2.36833e-017
RightArm  -15.3256 0.383749 67.3323
RightForeArm  49.3487 38.8838 6.04305
RightHand  -0.32194 -2.18245 -11.4093
LeftUpLeg  -31.3696 12.5763 -3.39491
LeftLeg  33.9074 17.8681 10.1302
LeftFoot  -1.66479 -0.00916973 -0.469563
LeftToes  -13.3838 1.87998e-006 4.79886e-008
654
root  -21.0848 34.2186 -27.7432 12.5638 -76.5625 -2.02209
RightUpLeg  -2.28795 -12.8384 -0.575754
RightLeg  8.14816 2.48204 0.19491
RightFoot  -3.35425 -0.0155701 0.00731586
RightToes  -31.2858 -0.152875 -0.260803
Spine  -1.45204 2.46997 0.453629
Spine1  -2.84598 4.90692 1.67347
HEad  -41.0559 9.36197 2.23466
LeftShoulder1  -1.94126e-019 -3.10601e-018 -2.51263e-017
LeftArm  -24.7685 35.8122 -78.9778
LeftForeArm  24.9398 -37.1706 -6.96252
LeftHand  -0.481758 -2.16666 7.60104
RightShoulder  -4.96962e-017 0 -2.36833e-017
RightArm  -13.1465 1.73384 68.0232
RightForeArm  50.4608 42.7104 7.07824
RightHand  -0.374599 -1.68454 -11.5883
LeftUpLeg  -33.5449 13.7196 -5.2599
LeftLeg  31.1153 17.8693 9.04567
LeftFoot  -2.05648 -0.0135709 -0.594546
LeftToes  -12.7128 1.87998e-006 4.79886e-008
655
root  -21.8794 34.1041 -27.5048 12.3326 -77.0884 -1.22845
RightUpLeg  -1.66292 -12.315 -1.04238
RightLeg  8.4333 2.23713 0.186982
RightFoot  -4.16968 -0.0197657 -0.00496099
RightToes  -31.6256 -0.155274 -0.263104
Spine  -1.46104 2.48599 0.173168
Spine1  -2.86996 4.92109 1.12635
HEad  -42.2325 10.2524 2.02788
LeftShoulder1  -1.94126e-019 -3.10601e-018 -2.51263e-017
LeftArm  -26.346 36.5493 -80.9163
LeftForeArm  24.4859 -33.0706 -5.88983
LeftHand  -0.425246 -2.3486 6.58731
RightShoulder  -4.96962e-017 0 -2.36833e-017
RightArm  -11.6685 2.12553 68.7278
RightForeArm  51.0498 46.1536 8.15068
RightHand  -0.426904 -1.2477 -11.8811
LeftUpLeg  -35.4735 14.4255 -6.9678
LeftLeg  28.3363 18.4268 8.25098
LeftFoot  -2.38918 -0.018401 -0.720853
LeftToes  -9.60693 1.87998e-006 4.79886e-008
656
root  -22.7483 33.9721 -27.1857 12.3235 -77.2592 -0.631897
RightUpLeg  -0.922336 -12.3365 -1.59707
RightLeg  8.80911 2.30336 0.207685
RightFoot  -4.81882 -0.0239435 -0.0328424
RightToes  -32.5511 -0.161877 -0.2693
Spine  -1.55865 2.49451 -0.0332063
Spine1  -3.06374 4.93919 0.713948
HEad  -43.2176 10.745 1.76303
LeftShoulder1  -1.94126e-019 -3.10601e-018 -2.51263e-017
LeftArm  -27.7809 37.2879 -82.9459
LeftForeArm  24.3847 -28.3076 -4.74786
LeftHand  -0.37536 -2.03917 6.05798
RightShoulder  -4.96962e-017 0 -2.36833e-017
RightArm  -10.5168 1.07392 69.103
RightForeArm  51.0903 49.108 9.21755
RightHand  -0.479172 -0.919995 -12.401
LeftUpLeg  -37.189 15.2103 -8.71823
LeftLeg  26.0355 18.788 7.54082
LeftFoot  -2.25829 -0.0164037 -0.670683
LeftToes  -4.7126 1.87998e-006 4.79886e-008
657
root  -23.6911 33.8252 -26.7688 11.6799 -77.3587 0.54129
RightUpLeg  -0.240141 -12.4736 -2.46236
RightLeg  9.76424 2.40146 0.256822
RightFoot  -5.35745 -0.0278942 -0.0614996
RightToes  -34.3277 -0.174829 -0.280891
Spine  -1.74611 2.5711 -0.328471
Spine1  -3.43663 5.11431 0.104196
HEad  -43.7206 10.9806 1.67285
LeftShoulder1  -1.94126e-019 -3.10601e-018 -2.51263e-017
LeftArm  -29.5356 38.219 -84.7231
LeftForeArm  24.948 -23.2967 -3.64574
LeftHand  -0.350463 -1.75671 5.87014
RightShoulder  -4.96962e-017 0 -2.36833e-017
RightArm  -9.68815 -1.27181 69.4493
RightForeArm  51.0452 50.8924 9.93247
RightHand  -0.533834 -0.496865 -12.6636
LeftUpLeg  -38.3132 15.8602 -10.4736
LeftLeg  24.5641 18.9089 7.04449
LeftFoot  -1.63621 -0.00848114 -0.432374
LeftToes  -1.1761 1.87998e-006 4.79886e-008
658
root  -24.7366 33.6789 -26.2587 10.8961 -77.326 1.5585
RightUpLeg  0.451114 -13.2411 -3.63221
RightLeg  11.7304 3.0848 0.436771
RightFoot  -5.4826 -0.0318981 -0.135734
RightToes  -38.1224 -0.20366 -0.304272
Spine  -1.90138 2.70525 -0.59053
Spine1  -3.74402 5.42143 -0.45428
HEad  -44.0371 11.1917 1.74401
LeftShoulder1  -1.94126e-019 -3.10601e-018 -2.51263e-017
LeftArm  -31.4075 39.1104 -86.1255
LeftForeArm  25.4041 -17.8992 -2.73182
LeftHand  -0.350597 -1.68807 5.92387
RightShoulder  -4.96962e-017 0 -2.36833e-017
RightArm  -9.11702 -4.57194 69.6573
RightForeArm  51.2012 51.2986 10.0914
RightHand  -0.560125 -0.180313 -12.5077
LeftUpLeg  -38.3638 15.3489 -11.2472
LeftLeg  24.8172 17.9428 6.78801
LeftFoot  0.277057 -0.000268236 0.272634
LeftToes  3.52836 1.87998e-006 4.79886e-008
659
root  -25.8755 33.5118 -25.6587 10.0438 -76.9888 2.37222
RightUpLeg  0.52258 -13.1584 -4.82867
RightLeg  15.8455 2.97503 0.640663
RightFoot  -5.393 -0.0303839 -0.11348
RightToes  -43.5323 -0.247298 -0.334194
Spine  -2.06885 2.79714 -0.803434
Spine1  -4.04135 5.76781 -0.957761
HEad  -44.0852 11.4617 1.70441
LeftShoulder1  -1.94126e-019 -3.10601e-018 -2.51263e-017
LeftArm  -33.3405 40.4032 -87.1236
LeftForeArm  26.1284 -14.5292 -2.30285
LeftHand  -0.318625 -1.51842 5.51693
RightShoulder  -4.96962e-017 0 -2.36833e-017
RightArm  -8.52107 -8.45151 69.7969
RightForeArm  51.8535 50.0636 9.54499
RightHand  -0.581747 0.100076 -12.3499
LeftUpLeg  -37.6041 12.5473 -10.4726
LeftLeg  27.908 18.4412 8.09702
LeftFoot  -0.529246 -0.000664747 0.0175712
LeftToes  8.15245 1.87998e-006 4.79886e-008
